<mxfile host="app.diagrams.net" modified="2024-01-01T16:11:10.581Z" agent="Mozilla/5.0 (Windows NT 10.0; Win64; x64) AppleWebKit/537.36 (KHTML, like Gecko) Chrome/120.0.0.0 Safari/537.36" etag="YmtkAnvgsJfbTI42ybRA" version="22.1.16" type="device">
  <diagram name="PÃ¡gina-1" id="eG9fMQ_ltIL1VLpApVcc">
    <mxGraphModel dx="954" dy="600" grid="1" gridSize="10" guides="1" tooltips="1" connect="1" arrows="1" fold="1" page="1" pageScale="1" pageWidth="827" pageHeight="1169" math="0" shadow="0">
      <root>
        <mxCell id="0" />
        <mxCell id="1" parent="0" />
        <mxCell id="wvbD1oqweJ9BSff5ZpkI-24" value="" style="verticalLabelPosition=bottom;verticalAlign=top;html=1;shape=mxgraph.basic.orthogonal_triangle;rotation=90;spacingBottom=5;fillColor=#fad9d5;strokeColor=#ae4132;" vertex="1" parent="1">
          <mxGeometry x="310" y="230" width="180" height="174" as="geometry" />
        </mxCell>
        <mxCell id="wvbD1oqweJ9BSff5ZpkI-23" value="" style="verticalLabelPosition=bottom;verticalAlign=top;html=1;shape=mxgraph.basic.orthogonal_triangle;rotation=-90;spacingBottom=5;fillColor=#1ba1e2;strokeColor=#006EAF;fontColor=#ffffff;" vertex="1" parent="1">
          <mxGeometry x="340" y="250" width="180" height="165" as="geometry" />
        </mxCell>
        <mxCell id="wvbD1oqweJ9BSff5ZpkI-1" value="" style="endArrow=classic;html=1;rounded=0;strokeWidth=5;" edge="1" parent="1">
          <mxGeometry width="50" height="50" relative="1" as="geometry">
            <mxPoint x="310" y="430" as="sourcePoint" />
            <mxPoint x="310" y="200" as="targetPoint" />
          </mxGeometry>
        </mxCell>
        <mxCell id="wvbD1oqweJ9BSff5ZpkI-3" value="" style="endArrow=classic;html=1;rounded=0;strokeWidth=5;" edge="1" parent="1">
          <mxGeometry width="50" height="50" relative="1" as="geometry">
            <mxPoint x="299" y="420" as="sourcePoint" />
            <mxPoint x="529" y="420" as="targetPoint" />
          </mxGeometry>
        </mxCell>
        <mxCell id="wvbD1oqweJ9BSff5ZpkI-5" value="&lt;font style=&quot;font-size: 22px;&quot;&gt;Current Challenge&lt;/font&gt;" style="text;html=1;strokeColor=none;fillColor=none;align=center;verticalAlign=middle;whiteSpace=wrap;rounded=0;strokeWidth=18;rotation=-90;" vertex="1" parent="1">
          <mxGeometry x="140" y="310" width="190" height="30" as="geometry" />
        </mxCell>
        <mxCell id="wvbD1oqweJ9BSff5ZpkI-6" value="&lt;font style=&quot;font-size: 22px;&quot;&gt;Player&#39;s Skill&lt;/font&gt;" style="text;html=1;strokeColor=none;fillColor=none;align=center;verticalAlign=middle;whiteSpace=wrap;rounded=0;" vertex="1" parent="1">
          <mxGeometry x="334" y="460" width="160" height="30" as="geometry" />
        </mxCell>
        <mxCell id="wvbD1oqweJ9BSff5ZpkI-12" value="" style="endArrow=none;html=1;rounded=0;labelBackgroundColor=#FF3333;" edge="1" parent="1">
          <mxGeometry width="50" height="50" relative="1" as="geometry">
            <mxPoint x="310" y="390" as="sourcePoint" />
            <mxPoint x="310" y="230" as="targetPoint" />
          </mxGeometry>
        </mxCell>
        <mxCell id="wvbD1oqweJ9BSff5ZpkI-14" value="" style="curved=1;endArrow=classic;html=1;rounded=0;strokeWidth=3;" edge="1" parent="1">
          <mxGeometry width="50" height="50" relative="1" as="geometry">
            <mxPoint x="310" y="420" as="sourcePoint" />
            <mxPoint x="499" y="240" as="targetPoint" />
            <Array as="points">
              <mxPoint x="379" y="410" />
              <mxPoint x="340" y="370" />
              <mxPoint x="409" y="360" />
              <mxPoint x="390" y="320" />
              <mxPoint x="459" y="300" />
              <mxPoint x="460" y="260" />
            </Array>
          </mxGeometry>
        </mxCell>
        <mxCell id="wvbD1oqweJ9BSff5ZpkI-17" value="Too hard for player = Frustration" style="text;html=1;align=center;verticalAlign=middle;resizable=0;points=[];autosize=1;strokeColor=none;fillColor=none;rotation=-45;" vertex="1" parent="1">
          <mxGeometry x="285" y="280" width="190" height="30" as="geometry" />
        </mxCell>
        <mxCell id="wvbD1oqweJ9BSff5ZpkI-18" value="Too easy for player = Boredom" style="text;html=1;align=center;verticalAlign=middle;resizable=0;points=[];autosize=1;strokeColor=none;fillColor=none;rotation=-45;" vertex="1" parent="1">
          <mxGeometry x="345" y="340" width="190" height="30" as="geometry" />
        </mxCell>
        <mxCell id="wvbD1oqweJ9BSff5ZpkI-19" value="&lt;font style=&quot;font-size: 22px;&quot;&gt;Low&lt;/font&gt;" style="text;html=1;strokeColor=none;fillColor=none;align=center;verticalAlign=middle;whiteSpace=wrap;rounded=0;" vertex="1" parent="1">
          <mxGeometry x="255" y="430" width="60" height="30" as="geometry" />
        </mxCell>
        <mxCell id="wvbD1oqweJ9BSff5ZpkI-20" value="&lt;div style=&quot;text-align: center;&quot;&gt;&lt;span style=&quot;background-color: initial; font-size: 22px;&quot;&gt;High&lt;/span&gt;&lt;/div&gt;" style="text;whiteSpace=wrap;html=1;" vertex="1" parent="1">
          <mxGeometry x="494" y="430" width="70" height="50" as="geometry" />
        </mxCell>
        <mxCell id="wvbD1oqweJ9BSff5ZpkI-21" value="&lt;span style=&quot;color: rgb(0, 0, 0); font-family: Helvetica; font-size: 22px; font-style: normal; font-variant-ligatures: normal; font-variant-caps: normal; font-weight: 400; letter-spacing: normal; orphans: 2; text-align: center; text-indent: 0px; text-transform: none; widows: 2; word-spacing: 0px; -webkit-text-stroke-width: 0px; background-color: rgb(251, 251, 251); text-decoration-thickness: initial; text-decoration-style: initial; text-decoration-color: initial; float: none; display: inline !important;&quot;&gt;High&lt;/span&gt;" style="text;whiteSpace=wrap;html=1;rotation=-90;" vertex="1" parent="1">
          <mxGeometry x="245" y="160" width="80" height="50" as="geometry" />
        </mxCell>
      </root>
    </mxGraphModel>
  </diagram>
</mxfile>
